<!-- Created with Inkscape (http://www.inkscape.org/) -->
<svg xmlns:rdf="http://www.w3.org/1999/02/22-rdf-syntax-ns#" xmlns="http://www.w3.org/2000/svg" height="87.736" width="188.01" version="1.1" xmlns:cc="http://creativecommons.org/ns#" xmlns:dc="http://purl.org/dc/elements/1.1/">
<metadata>
<rdf:RDF>
<cc:Work rdf:about="">
<dc:format>image/svg+xml</dc:format>
<dc:type rdf:resource="http://purl.org/dc/dcmitype/StillImage"/>
<dc:title/>
</cc:Work>
</rdf:RDF>
</metadata>
<g transform="translate(13.204816,-1045.7875)">
<g transform="translate(741.31014,-72.095025)">
<title>Swoops</title>
<path stroke-linejoin="round" d="m-645.49,1146.5c35.657-26.092,71.322-21.019,71.322-21.019,18.145,3.0542-2.5151,15.45-2.5151,15.45,15.574-15.757-26.996-14.497-68.807,5.5691z" stroke="#ff6804" stroke-linecap="round" stroke-miterlimit="4" stroke-dasharray="none" stroke-width="0.40000001" fill="#ff6804"/>
<path stroke-linejoin="round" d="m-660.48,1177c-35.657,26.092-71.322,21.019-71.322,21.019-18.145-3.0542,2.5151-15.45,2.5151-15.45-15.574,15.757,26.996,14.497,68.807-5.5691z" stroke="#ff6804" stroke-linecap="round" stroke-miterlimit="4" stroke-dasharray="none" stroke-width="0.40000001" fill="#ff6804"/>
</g>
<path style="text-align:start;" fill="#6b6b6a" d="m19.689,1081.4-0.57812,2.8438c-0.68752-0.5-1.4219-0.875-2.2031-1.125-0.77085-0.25-1.5729-0.375-2.4062-0.375-0.91668,0-1.7917,0.1615-2.625,0.4844-0.82292,0.3229-1.5156,0.7812-2.0781,1.375-0.89584,0.9062-1.5885,1.9687-2.0781,3.1875-0.48959,1.2187-0.73438,2.4791-0.73438,3.7812-0.000004,1.5729,0.39062,2.7448,1.1719,3.5156,0.79166,0.7709,1.9896,1.1563,3.5938,1.1563,0.79166,0,1.6302-0.1198,2.5156-0.3594,0.89582-0.2396,1.8281-0.5989,2.7969-1.0781l-0.54688,2.8437c-0.83335,0.3438-1.6927,0.599-2.5781,0.7657-0.87501,0.177-1.7761,0.2656-2.7031,0.2656-2.3229,0-4.1094-0.5781-5.3594-1.7344-1.25-1.1666-1.875-2.8281-1.875-4.9844-0.000001-1.8125,0.32292-3.4791,0.96875-5,0.65625-1.5312,1.625-2.9062,2.9062-4.125,0.87499-0.8333,1.901-1.4635,3.0781-1.8906,1.1771-0.427,2.4635-0.6406,3.8594-0.6406,0.81249,0,1.6198,0.094,2.4219,0.2812,0.80207,0.1771,1.6198,0.448,2.4531,0.8125"/>
<path style="text-align:start;" fill="#6b6b6a" d="m28.283,1098.7c-2.0521,0-3.6771-0.6302-4.875-1.8906-1.1875-1.2709-1.7813-3-1.7812-5.1875-0.000001-1.2709,0.20312-2.5625,0.60938-3.875,0.41666-1.3229,0.95312-2.4323,1.6094-3.3282,1.0312-1.3958,2.1823-2.427,3.4531-3.0937s2.7083-1,4.3125-1c1.9896,0,3.5937,0.6198,4.8125,1.8594,1.2292,1.2396,1.8437,2.8594,1.8438,4.8593-0.000018,1.3855-0.20314,2.7657-0.60938,4.1407-0.40627,1.375-0.93752,2.5156-1.5938,3.4218-1.0208,1.3959-2.1667,2.4271-3.4375,3.0938s-2.7188,1-4.3438,1m-3.6719-7.1719c-0.000004,1.5834,0.32812,2.7709,0.98438,3.5625,0.66666,0.7813,1.6719,1.1719,3.0156,1.1719,1.9271,0,3.5208-0.8385,4.7812-2.5156,1.2708-1.6875,1.9062-3.8229,1.9062-6.4063-0.000015-1.5104-0.33856-2.651-1.0156-3.4219-0.6771-0.7708-1.6719-1.1562-2.9844-1.1562-1.0833,0-2.0469,0.2552-2.8906,0.7656-0.84376,0.5-1.599,1.2657-2.2656,2.2969-0.48959,0.7708-0.8698,1.651-1.1406,2.6406-0.26042,0.9896-0.39063,2.0104-0.39062,3.0625"/>
<path style="text-align:start;" fill="#6b6b6a" d="m57.548,1087.7-2.0469,10.562-2.8906,0,2.0469-10.453c0.09374-0.4895,0.16665-0.9218,0.21875-1.2968,0.05207-0.375,0.07811-0.6719,0.07813-0.8907-0.000015-0.8749-0.27606-1.5572-0.82812-2.0468-0.5521-0.4896-1.3229-0.7344-2.3125-0.7344-1.5417,0-2.8698,0.5156-3.9844,1.5469-1.1146,1.0208-1.8438,2.4114-2.1875,4.1718l-1.9219,9.7032h-2.875l3.3906-17.5h2.875l-0.57812,2.75c0.80208-1.0104,1.7656-1.7917,2.8906-2.3438,1.125-0.552,2.3073-0.8281,3.5469-0.8281,1.5417,0,2.7344,0.4167,3.5781,1.25,0.85415,0.8333,1.2812,2.0052,1.2812,3.5156-0.000018,0.375-0.02606,0.7761-0.07813,1.2031-0.04168,0.4271-0.10939,0.8907-0.20312,1.3907"/>
<path style="text-align:start;" fill="#6b6b6a" d="m73.564,1080.7-0.4375,2.2343-5.7344,0-1.8594,9.5c-0.06251,0.3542-0.10938,0.6511-0.14062,0.8907-0.03126,0.2396-0.04688,0.4271-0.04687,0.5625-0.000005,0.6666,0.19791,1.151,0.59375,1.4531,0.40624,0.3021,1.0521,0.4531,1.9375,0.4531h2.9062l-0.48438,2.4063h-2.75c-1.7083,0-2.9844-0.3334-3.8281-1-0.83334-0.6667-1.25-1.6771-1.25-3.0313-0.000002-0.2396,0.01562-0.5,0.04687-0.7812,0.03125-0.2917,0.07812-0.6094,0.14062-0.9532l1.8594-9.5h-2.4375l0.45312-2.2343h2.3906l0.96875-4.9688h2.875l-0.95312,4.9688h5.75"/>
<path style="text-align:start;" fill="#6b6b6a" d="m78.455,1073.9,2.875,0-0.70312,3.6406-2.875,0,0.70312-3.6406m-1.3125,6.8125,2.875,0-3.4219,17.5-2.875,0,3.4219-17.5"/>
<path style="text-align:start;" fill="#6b6b6a" d="m99.298,1087.7-2.0469,10.562-2.8906,0,2.0469-10.453c0.0937-0.4895,0.16665-0.9218,0.21875-1.2968s0.0781-0.6719,0.0781-0.8907c-0.00001-0.8749-0.27605-1.5572-0.82812-2.0468-0.5521-0.4896-1.3229-0.7344-2.3125-0.7344-1.5417,0-2.8698,0.5156-3.9844,1.5469-1.1146,1.0208-1.8438,2.4114-2.1875,4.1718l-1.9219,9.7032h-2.875l3.3906-17.5h2.875l-0.57812,2.75c0.80207-1.0104,1.7656-1.7917,2.8906-2.3438,1.125-0.552,2.3073-0.8281,3.5469-0.8281,1.5416,0,2.7344,0.4167,3.5781,1.25,0.85415,0.8333,1.2812,2.0052,1.2812,3.5156-0.00002,0.375-0.0261,0.7761-0.0781,1.2031-0.0417,0.4271-0.1094,0.8907-0.20313,1.3907"/>
<path style="text-align:start;" fill="#ff6804" d="m103.92,1091.3,2.0469-10.562,2.8906,0-2.0469,10.453c-0.10417,0.5104-0.1823,0.9479-0.23438,1.3125-0.0417,0.3646-0.0625,0.6667-0.0625,0.9062,0,0.8855,0.27083,1.573,0.8125,2.0625,0.54166,0.4792,1.3073,0.7188,2.2969,0.7188,1.5416,0,2.875-0.5208,4-1.5625s1.8594-2.4427,2.2031-4.2031l1.9219-9.6875h2.875l-3.3906,17.5h-2.875l0.57813-2.75c-0.81251,1.0208-1.7813,1.8125-2.9062,2.375-1.1146,0.552-2.3021,0.8281-3.5625,0.8281-1.5313,0-2.724-0.4167-3.5781-1.25-0.85417-0.8438-1.2812-2.0156-1.2812-3.5156,0-0.3125,0.026-0.7032,0.0781-1.1719,0.0521-0.4688,0.1302-0.9531,0.23437-1.4531"/>
<path style="text-align:start;" fill="#ff6804" d="m124.24,1091.3,2.0469-10.562,2.8906,0-2.0469,10.453c-0.10417,0.5104-0.1823,0.9479-0.23438,1.3125-0.0417,0.3646-0.0625,0.6667-0.0625,0.9062,0,0.8855,0.27083,1.573,0.8125,2.0625,0.54166,0.4792,1.3073,0.7188,2.2969,0.7188,1.5416,0,2.875-0.5208,4-1.5625s1.8594-2.4427,2.2031-4.2031l1.9219-9.6875h2.875l-3.3906,17.5h-2.875l0.57813-2.75c-0.81251,1.0208-1.7813,1.8125-2.9062,2.375-1.1146,0.552-2.3021,0.8281-3.5625,0.8281-1.5313,0-2.724-0.4167-3.5781-1.25-0.85417-0.8438-1.2812-2.0156-1.2812-3.5156,0-0.3125,0.026-0.7032,0.0781-1.1719,0.0521-0.4688,0.1302-0.9531,0.23437-1.4531"/>
<path style="text-align:start;" fill="#6b6b6a" d="m171.14,1087.7-2.0469,10.562-2.875,0,2.0156-10.469c0.0833-0.4479,0.14581-0.8333,0.1875-1.1562,0.0416-0.3229,0.0625-0.599,0.0625-0.8282-0.00002-0.9374-0.26044-1.6666-0.78125-2.1875-0.52086-0.5208-1.25-0.7812-2.1875-0.7812-1.3958,0-2.6406,0.526-3.7344,1.5781-1.0938,1.0417-1.8021,2.4011-2.125,4.0781l-1.9219,9.7657h-2.875l2.0469-10.469c0.0833-0.3854,0.14582-0.7396,0.1875-1.0625,0.0417-0.3333,0.0625-0.6302,0.0625-0.8906-0.00002-0.9479-0.26043-1.6823-0.78125-2.2031-0.52085-0.5313-1.2396-0.7969-2.1562-0.7969-1.4167,0-2.6719,0.526-3.7656,1.5781-1.0938,1.0417-1.8021,2.4011-2.125,4.0781l-1.9219,9.7657h-2.875l3.4219-17.5h2.875l-0.54687,2.7187c0.78124-1.0208,1.6927-1.7968,2.7344-2.3281,1.0521-0.5417,2.1771-0.8125,3.375-0.8125,1.2708,0,2.3125,0.3333,3.125,1,0.8229,0.6667,1.3177,1.5938,1.4844,2.7812,0.87498-1.2291,1.8854-2.1666,3.0312-2.8125,1.1562-0.6458,2.375-0.9687,3.6562-0.9687,1.5,0,2.6562,0.4323,3.4688,1.2969,0.82289,0.8646,1.2343,2.0885,1.2344,3.6718-0.00003,0.3438-0.0209,0.724-0.0625,1.1407-0.0417,0.4062-0.10419,0.8229-0.1875,1.25"/>
</g>
</svg>
